<?xml version="1.0" encoding="UTF-8" standalone="no"?>
<!-- Generator: Adobe Illustrator 15.0.0, SVG Export Plug-In . SVG Version: 6.00 Build 0)  -->

<svg
   xmlns:dc="http://purl.org/dc/elements/1.1/"
   xmlns:cc="http://creativecommons.org/ns#"
   xmlns:rdf="http://www.w3.org/1999/02/22-rdf-syntax-ns#"
   xmlns:svg="http://www.w3.org/2000/svg"
   xmlns="http://www.w3.org/2000/svg"
   xmlns:sodipodi="http://sodipodi.sourceforge.net/DTD/sodipodi-0.dtd"
   xmlns:inkscape="http://www.inkscape.org/namespaces/inkscape"
   version="1.2"
   x="0px"
   y="0px"
   width="123.283"
   height="123.284"
   viewBox="0 0 123.283 123.284"
   xml:space="preserve"
   id="svg26"
   sodipodi:docname="logo-cnmv.svg"
   inkscape:version="0.92.2 5c3e80d, 2017-08-06"><metadata
     id="metadata32"><rdf:RDF><cc:Work
         rdf:about=""><dc:format>image/svg+xml</dc:format><dc:type
           rdf:resource="http://purl.org/dc/dcmitype/StillImage" /><dc:title></dc:title></cc:Work></rdf:RDF></metadata><defs
     id="defs30" /><sodipodi:namedview
     pagecolor="#ffffff"
     bordercolor="#666666"
     borderopacity="1"
     objecttolerance="10"
     gridtolerance="10"
     guidetolerance="10"
     inkscape:pageopacity="0"
     inkscape:pageshadow="2"
     inkscape:window-width="1440"
     inkscape:window-height="759"
     id="namedview28"
     showgrid="false"
     fit-margin-top="0"
     fit-margin-left="0"
     fit-margin-right="0"
     fit-margin-bottom="0"
     inkscape:zoom="1.9186992"
     inkscape:cx="-39.279593"
     inkscape:cy="61.739"
     inkscape:window-x="0"
     inkscape:window-y="1"
     inkscape:window-maximized="1"
     inkscape:current-layer="svg26" /><g
     id="Cuadrícula"
     display="none"
     style="display:none"
     transform="translate(-48.644,0.045)" /><g
     id="Capa_1"
     transform="translate(-48.644,0.045)" /><g
     id="Escritorio"
     transform="translate(-48.644,0.045)" /><g
     id="Guías"
     transform="translate(-48.644,0.045)" /><path
     style="fill:#ad2144;fill-rule:evenodd"
     inkscape:connector-curvature="0"
     id="path6"
     d="m 123.283,39.246 v 84.038 H 0 V 57.09 C 1.646,63.747 6.347,69 14.231,69 c 4.976,0 8.274,-3.048 11.349,-7.128 l 1.655,-0.002 v 0 h 10.406 v -1.332 c -3.808,0 -4.405,-0.78 -4.405,-5.368 V 43.33 L 52.23,66.002 h 1.147 V 44.386 c 0,-4.547 0.542,-5.354 4.304,-5.368 l 0.868,10e-4 c 3.597,0.033 4.125,0.875 4.125,5.367 v 14.131 c 0,4.588 -0.55,5.367 -4.358,5.367 v 1.332 h 10.827 v -1.332 c -3.808,0 -4.404,-0.779 -4.404,-5.367 V 45.303 l 9.222,20.7 h 1.009 l 8.993,-20.747 v 13.26 c 0,4.588 -0.597,5.367 -4.404,5.367 v 1.332 h 14.314 v -1.332 c -3.854,0 -4.404,-0.779 -4.404,-5.367 v -14.13 c 0,-4.474 0.524,-5.327 4.123,-5.366 3.474,0.045 4.104,1.122 5.374,4.035 l 10.002,22.949 h 0.963 l 9.956,-22.949 c 1.017,-2.331 1.846,-3.393 3.396,-3.809 z m -34.531,73.315 v 0 0.002 0.003 0 c -10e-4,0.548 -0.219,1.007 -0.565,1.329 -0.347,0.323 -0.822,0.507 -1.336,0.507 v 0 h -0.002 c -0.346,0 -0.659,-0.082 -0.915,-0.186 -0.223,-0.09 -0.404,-0.197 -0.526,-0.274 -0.031,0.038 -0.064,0.085 -0.096,0.141 -0.043,0.075 -0.083,0.167 -0.102,0.269 l -0.009,0.051 h -0.052 -0.233 -0.062 v -0.061 -2.232 -0.061 h 0.062 0.259 0.056 l 0.005,0.055 c 0.072,0.766 0.439,1.291 0.986,1.527 0.107,0.046 0.221,0.08 0.341,0.104 0.121,0.025 0.248,0.038 0.378,0.038 v 0 h 0.01 0.004 v 0 c 0.263,0 0.498,-0.074 0.666,-0.213 0.166,-0.136 0.267,-0.336 0.268,-0.593 v 0 -0.002 c 0,-0.21 -0.085,-0.396 -0.252,-0.572 -0.173,-0.183 -0.434,-0.355 -0.777,-0.527 v 0 l -0.882,-0.452 v 0 c -0.355,-0.187 -0.659,-0.439 -0.857,-0.757 v 0 c -0.039,-0.062 -0.073,-0.127 -0.104,-0.192 -0.094,-0.206 -0.147,-0.436 -0.147,-0.686 v 0 -0.002 -0.002 0 c 0,-0.428 0.18,-0.813 0.479,-1.09 0.299,-0.276 0.719,-0.448 1.201,-0.451 v 0 h 0.002 c 0.402,0 0.736,0.105 0.997,0.236 v 0 c 0.051,0.027 0.099,0.053 0.144,0.081 0.027,0.017 0.054,0.034 0.08,0.051 0.057,-0.069 0.125,-0.171 0.145,-0.325 l 0.006,-0.056 h 0.055 0.259 0.063 v 0.063 2.19 0.063 h -0.063 -0.259 -0.056 l -0.005,-0.058 c -0.054,-0.541 -0.243,-1.152 -0.674,-1.454 v 0 c -0.083,-0.058 -0.175,-0.104 -0.276,-0.136 -0.102,-0.032 -0.214,-0.051 -0.337,-0.051 v 0 h -0.013 -0.003 v 0 c -0.238,0 -0.457,0.063 -0.616,0.182 -0.154,0.117 -0.252,0.287 -0.252,0.506 v 0 0.002 c 0,0.208 0.078,0.369 0.248,0.526 0.178,0.166 0.457,0.329 0.847,0.533 l 0.869,0.454 c 0.317,0.162 0.552,0.362 0.717,0.576 0.033,0.043 0.062,0.085 0.089,0.13 0.164,0.266 0.235,0.551 0.235,0.814 z m -7.232,1.015 h 0.155 c 0.578,0 0.905,-0.051 1.104,-0.177 0.19,-0.12 0.267,-0.315 0.341,-0.606 v 0 l 0.064,-0.26 0.012,-0.046 h 0.048 0.259 0.066 l -0.004,0.065 -0.104,1.569 -0.004,0.058 h -0.058 -4.85 -0.063 v -0.062 -0.26 -0.062 h 0.063 c 0.413,0 0.654,-0.049 0.787,-0.244 0.139,-0.206 0.176,-0.576 0.176,-1.21 v 0 -2.075 0 c 0,-0.637 -0.037,-1.003 -0.176,-1.204 -0.132,-0.191 -0.374,-0.238 -0.787,-0.238 h -0.063 v -0.063 -0.259 -0.062 h 0.063 2.866 1.672 0.058 l 0.004,0.058 0.104,1.556 0.004,0.066 h -0.066 -0.272 -0.048 l -0.012,-0.047 -0.064,-0.26 v 0 c -0.068,-0.283 -0.141,-0.479 -0.33,-0.601 -0.196,-0.127 -0.524,-0.182 -1.101,-0.182 h -0.807 v 1.809 h 0.015 c 0.634,0 0.974,-0.035 1.148,-0.174 v 0 c 0.167,-0.13 0.19,-0.374 0.19,-0.788 v -0.064 h 0.062 0.259 0.062 v 0.064 2.527 0.062 H 82.231 81.972 81.91 v -0.062 c 0,-0.408 -0.023,-0.652 -0.19,-0.784 -0.175,-0.138 -0.515,-0.179 -1.148,-0.179 h -0.015 v 0.69 h -0.001 c 0,0.635 0.038,1.003 0.176,1.205 0.133,0.193 0.375,0.24 0.788,0.24 z m -5.659,-1.922 c -0.093,0.027 -0.191,0.053 -0.293,0.069 l 0.735,0.891 v 0 c 0.256,0.299 0.532,0.575 0.819,0.785 0.284,0.208 0.579,0.354 0.88,0.397 l 0.053,0.008 v 0.054 0.26 0.062 h -0.062 -1.66 -0.031 l -0.019,-0.026 -1.745,-2.385 h -0.27 v 0.574 0 c 0,0.634 0.037,1.004 0.177,1.21 0.132,0.195 0.374,0.244 0.786,0.244 h 0.063 v 0.062 0.26 0.062 h -0.063 -2.97 -0.062 v -0.062 -0.26 -0.062 h 0.062 c 0.413,0 0.655,-0.049 0.788,-0.244 0.139,-0.206 0.175,-0.576 0.175,-1.21 v 0 -2.075 0 c 0,-0.637 -0.036,-1.003 -0.175,-1.204 -0.133,-0.191 -0.375,-0.238 -0.788,-0.238 h -0.062 v -0.063 -0.259 -0.062 h 0.062 2.685 0.004 v 0 c 0.681,0 1.211,0.178 1.573,0.471 0.367,0.3 0.56,0.719 0.56,1.197 v 0 0 c 0,0.593 -0.32,1.107 -0.874,1.4 -0.107,0.056 -0.223,0.104 -0.348,0.144 z m 0.085,-1.541 v 0 -0.004 -0.002 0 c 0,-0.295 -0.08,-0.564 -0.244,-0.76 -0.164,-0.193 -0.413,-0.315 -0.755,-0.315 v 0 h -0.002 -0.677 v 2.132 h 0.677 0.003 v 0 c 0.342,0 0.59,-0.118 0.754,-0.306 0.165,-0.191 0.244,-0.455 0.244,-0.745 z m -5.856,1.194 v 0 -0.003 -0.004 0 c 0,-0.547 -0.14,-1.164 -0.465,-1.645 -0.323,-0.475 -0.831,-0.816 -1.571,-0.816 v 0 h -0.002 -0.003 v 0 c -0.739,0 -1.247,0.342 -1.57,0.816 -0.326,0.48 -0.466,1.102 -0.466,1.646 v 0 0.002 0.005 0 c 0,0.552 0.14,1.169 0.466,1.647 0.322,0.476 0.831,0.813 1.57,0.815 v 0 h 0.003 0.002 v 0 c 0.74,-0.002 1.247,-0.34 1.57,-0.813 v 0 c 0.327,-0.479 0.466,-1.099 0.466,-1.65 z m 1.187,-0.003 v 0 0 l 0.001,0.003 h -0.001 c 0,0.853 -0.364,1.626 -0.948,2.187 -0.585,0.561 -1.391,0.908 -2.275,0.908 v 0 H 68.053 68.05 v 0 c -0.884,0 -1.688,-0.348 -2.273,-0.906 -0.585,-0.56 -0.949,-1.336 -0.95,-2.188 v 0 -0.003 -0.002 0 c 0,-0.839 0.364,-1.609 0.949,-2.17 0.584,-0.56 1.391,-0.912 2.275,-0.912 v 0 h 0.001 0.002 v 0 c 0.884,0.002 1.689,0.351 2.273,0.912 0.586,0.559 0.95,1.33 0.95,2.171 z m -11.604,1.039 v 0 -2.075 0 c 0,-0.637 -0.037,-1.003 -0.175,-1.204 -0.133,-0.191 -0.375,-0.238 -0.787,-0.238 h -0.063 v -0.063 -0.259 -0.062 h 0.063 2.969 0.062 v 0.062 0.259 0.063 H 61.68 c -0.413,0 -0.654,0.047 -0.787,0.238 -0.138,0.201 -0.176,0.567 -0.176,1.204 v 0 1.866 0 c 0,0.635 0.038,1.003 0.176,1.205 0.133,0.19 0.374,0.237 0.787,0.237 h 0.454 c 0.584,0 0.912,-0.053 1.108,-0.177 0.189,-0.118 0.262,-0.315 0.336,-0.606 l 0.065,-0.26 0.011,-0.046 h 0.049 0.272 0.065 l -0.004,0.065 -0.09,1.569 -0.003,0.058 h -0.059 -5.173 -0.063 v -0.062 -0.26 -0.062 h 0.063 c 0.412,0 0.653,-0.049 0.786,-0.244 0.139,-0.204 0.176,-0.574 0.176,-1.208 z m -5.825,-0.621 h 1.523 l -0.762,-1.765 z m 1.784,0.603 h -2.045 l -0.244,0.562 v 0 c -0.155,0.362 -0.233,0.594 -0.159,0.721 0.074,0.13 0.315,0.177 0.802,0.177 h 0.062 v 0.062 0.272 0.062 h -0.062 -2.427 -0.062 v -0.062 -0.272 -0.062 h 0.062 c 0.379,0 0.572,-0.036 0.739,-0.185 0.172,-0.151 0.306,-0.43 0.516,-0.906 l 1.906,-4.435 0.016,-0.039 H 54.777 54.959 55 l 0.016,0.039 1.906,4.435 c 0.21,0.477 0.353,0.755 0.523,0.908 0.164,0.146 0.363,0.183 0.691,0.183 h -0.011 v 0.062 0.272 0.062 h 0.011 -2.905 -0.062 v -0.062 -0.272 -0.062 h 0.062 c 0.444,0 0.685,-0.049 0.77,-0.179 v 0 c 0.085,-0.129 0.027,-0.358 -0.126,-0.719 v 0 z m -2.149,-5.986 v 0.272 0.061 h -0.062 c -1.011,0 -1.094,0.191 -1.459,1.028 l -0.027,0.063 -2.829,6.603 -0.016,0.035 H 49.049 48.88 48.839 l -0.016,-0.035 -2.865,-6.603 v 0 L 45.931,107.7 c -0.365,-0.837 -0.448,-1.028 -1.461,-1.028 h -0.063 v -0.061 -0.272 -0.063 h 0.063 3.593 0.063 v 0.063 0.272 0.061 h -0.063 c -0.521,0 -0.838,0.063 -0.982,0.206 v 0.002 c -0.135,0.135 -0.116,0.358 0.028,0.69 l 2.147,4.915 2.122,-4.915 v 0 c 0.145,-0.324 0.164,-0.55 0.027,-0.686 -0.144,-0.147 -0.46,-0.213 -0.981,-0.213 h -0.063 v -0.061 -0.272 -0.063 h 0.063 2.997 0.062 z m -14.133,7.237 h 0.156 c 0.578,0 0.904,-0.051 1.103,-0.177 0.191,-0.12 0.267,-0.315 0.341,-0.606 v 0 l 0.065,-0.26 0.012,-0.046 h 0.048 0.26 0.065 l -0.004,0.065 -0.103,1.569 -0.004,0.058 h -0.058 -4.85 -0.062 v -0.062 -0.26 -0.062 h 0.062 c 0.413,0 0.654,-0.049 0.787,-0.244 0.14,-0.206 0.176,-0.576 0.176,-1.21 v 0 -2.075 0 c 0,-0.637 -0.036,-1.003 -0.176,-1.204 -0.132,-0.191 -0.374,-0.238 -0.787,-0.238 h -0.062 v -0.063 -0.259 -0.062 h 0.062 2.866 1.672 0.058 l 0.004,0.058 0.104,1.556 0.004,0.066 h -0.066 -0.272 -0.049 l -0.011,-0.047 -0.064,-0.26 v 0 c -0.068,-0.283 -0.141,-0.479 -0.33,-0.601 -0.196,-0.127 -0.524,-0.182 -1.101,-0.182 h -0.807 v 1.809 h 0.016 c 0.633,0 0.974,-0.035 1.148,-0.174 v 0 c 0.167,-0.13 0.189,-0.374 0.189,-0.788 v -0.064 h 0.063 0.259 0.063 v 0.064 2.527 0.062 h -0.063 -0.259 -0.063 v -0.062 c 0,-0.408 -0.022,-0.652 -0.19,-0.784 -0.174,-0.138 -0.515,-0.179 -1.148,-0.179 h -0.016 v 0.69 0 c 0,0.635 0.037,1.003 0.176,1.205 0.132,0.193 0.374,0.24 0.786,0.24 z m -7.456,0.604 h -2.749 -0.062 v -0.062 -0.26 -0.062 h 0.062 c 0.413,0 0.654,-0.049 0.787,-0.244 0.139,-0.206 0.175,-0.576 0.175,-1.21 v 0 -2.075 0 c 0,-0.637 -0.036,-1.003 -0.175,-1.204 -0.132,-0.191 -0.374,-0.238 -0.787,-0.238 h -0.062 v -0.063 -0.259 -0.062 h 0.062 2.749 v 0 h 0.003 v 0 c 1.118,0 1.922,0.324 2.449,0.843 0.527,0.522 0.773,1.238 0.774,2.018 v 0 0.002 0.005 0 c 0,0.785 -0.247,1.503 -0.773,2.025 -0.526,0.52 -1.332,0.846 -2.45,0.846 v 0 z m 1.654,-1.354 c 0.29,-0.442 0.372,-1.013 0.372,-1.522 v -0.007 0 c 0,-0.499 -0.084,-1.067 -0.373,-1.51 -0.288,-0.439 -0.782,-0.753 -1.61,-0.755 v 0 h -0.004 -0.781 v 3.62 c 0,0.407 0.021,0.646 0.114,0.773 0.089,0.12 0.26,0.15 0.563,0.15 h 0.104 c 0.831,10e-4 1.327,-0.311 1.615,-0.749 z m 66.854,-13.38 v 0 -0.003 -0.004 0 c 0,-0.547 -0.14,-1.164 -0.465,-1.645 -0.323,-0.475 -0.831,-0.816 -1.57,-0.818 v 0 h -0.002 -0.003 v 0 c -0.738,0.002 -1.247,0.344 -1.569,0.816 -0.326,0.482 -0.466,1.103 -0.466,1.648 v 0 0.002 0.005 0 c 0,0.552 0.14,1.169 0.466,1.647 0.322,0.474 0.831,0.813 1.57,0.813 v 0 h 0.003 0.002 v 0 c 0.739,0 1.247,-0.338 1.57,-0.813 0.324,-0.477 0.464,-1.096 0.464,-1.648 z m 1.188,-0.005 v 0 0.002 0.003 0 c -0.001,0.853 -0.365,1.626 -0.949,2.187 -0.585,0.561 -1.392,0.908 -2.276,0.908 v 0 h -10e-4 -0.003 v 0 c -0.883,0 -1.688,-0.348 -2.273,-0.908 -0.584,-0.561 -0.949,-1.336 -0.949,-2.189 v 0 0 -0.002 0 c 0,-0.841 0.364,-1.609 0.948,-2.17 0.585,-0.562 1.392,-0.912 2.276,-0.912 v 0 h 0.002 0.002 v 0 c 0.883,0 1.689,0.351 2.273,0.91 0.584,0.559 0.949,1.333 0.95,2.171 z m -11.019,2.878 h -2.749 -0.063 v -0.062 -0.26 -0.062 h 0.063 c 0.413,0 0.654,-0.051 0.787,-0.246 0.139,-0.204 0.176,-0.573 0.176,-1.21 v 0 -2.074 0 c 0,-0.635 -0.037,-1.001 -0.175,-1.202 -0.133,-0.193 -0.375,-0.24 -0.788,-0.24 H 87.759 V 96.901 96.642 96.58 h 0.063 2.749 v 0 h 0.003 v 0 c 1.118,0 1.922,0.324 2.447,0.843 0.529,0.52 0.774,1.238 0.775,2.018 v 0 0.002 0.003 0 c -0.001,0.787 -0.247,1.505 -0.774,2.027 -0.526,0.52 -1.331,0.846 -2.45,0.846 v 0 z m 1.653,-1.353 c 0.291,-0.441 0.372,-1.015 0.372,-1.522 v -0.006 0 c -0.001,-0.502 -0.083,-1.07 -0.373,-1.513 -0.287,-0.438 -0.782,-0.753 -1.609,-0.753 v 0 h -0.005 -0.781 v 3.62 c 0,0.407 0.021,0.646 0.115,0.773 0.088,0.118 0.259,0.15 0.563,0.15 h 0.104 c 0.831,10e-4 1.327,-0.312 1.614,-0.749 z m -9.313,-1.105 h 1.523 l -0.761,-1.767 z m 1.783,0.604 h -2.045 l -0.243,0.559 v 0 c -0.154,0.365 -0.233,0.597 -0.159,0.724 0.074,0.128 0.315,0.175 0.802,0.175 h 0.062 v 0.063 0.272 0.062 h -0.062 -2.45 -0.063 v -0.062 -0.272 -0.063 h 0.063 c 0.379,0 0.596,-0.034 0.763,-0.183 0.172,-0.153 0.306,-0.43 0.516,-0.907 L 83.784,96.399 83.8,96.36 h 0.041 0.182 0.041 l 0.016,0.039 1.907,4.434 c 0.21,0.478 0.353,0.754 0.522,0.907 0.164,0.148 0.364,0.185 0.691,0.185 h 0.062 v 0.062 0.272 0.062 H 87.2 84.295 84.233 v -0.062 -0.272 -0.063 h 0.062 c 0.444,0 0.685,-0.047 0.77,-0.177 v 0 c 0.085,-0.129 0.026,-0.358 -0.126,-0.722 H 84.938 Z M 79.779,100 v 2.258 0.062 H 79.716 79.47 79.421 l -0.011,-0.049 c -0.036,-0.164 -0.092,-0.366 -0.153,-0.497 -0.007,-0.02 -0.017,-0.036 -0.025,-0.051 -0.159,0.182 -0.362,0.346 -0.586,0.479 v 0 c -0.047,0.03 -0.097,0.059 -0.148,0.084 -0.31,0.158 -0.65,0.256 -0.971,0.256 v 0 h -0.001 -0.003 v 0 c -0.826,0 -1.574,-0.348 -2.115,-0.908 -0.54,-0.561 -0.875,-1.336 -0.875,-2.187 v 0 -0.003 -0.002 0 c 0,-0.839 0.335,-1.609 0.875,-2.168 0.54,-0.562 1.29,-0.914 2.117,-0.914 v 0 h 10e-4 c 0.46,0 0.962,0.193 1.355,0.489 0.077,0.059 0.15,0.121 0.217,0.185 0.047,0.045 0.091,0.092 0.133,0.141 0.026,-0.051 0.054,-0.12 0.079,-0.193 v 0 c 0.04,-0.12 0.076,-0.251 0.101,-0.353 l 0.012,-0.047 h 0.048 0.246 0.063 v 0.062 2.242 0.064 h -0.063 -0.259 -0.051 l -0.01,-0.051 c -0.168,-0.822 -0.543,-1.434 -1.082,-1.727 -0.104,-0.059 -0.214,-0.103 -0.33,-0.135 -0.143,-0.04 -0.295,-0.061 -0.456,-0.061 v 0 h -0.004 -0.004 v 0 c -0.696,0.002 -1.149,0.348 -1.427,0.822 -0.282,0.487 -0.387,1.107 -0.388,1.643 v 0 0.002 0.005 0 c 10e-4,0.541 0.106,1.159 0.387,1.641 0.278,0.477 0.73,0.82 1.428,0.82 v 0 h 0.004 c 0.691,0 1.23,-0.382 1.567,-1.032 v 0 c 0.065,-0.126 0.125,-0.264 0.175,-0.412 v 0 c 0.051,-0.149 0.094,-0.306 0.128,-0.471 l 0.001,-0.005 0.01,-0.051 h 0.051 0.259 0.062 z m -8.014,-0.208 c -0.094,0.029 -0.192,0.053 -0.294,0.071 l 0.735,0.888 v 0 c 0.256,0.302 0.532,0.578 0.819,0.788 0.284,0.208 0.58,0.353 0.88,0.397 l 0.053,0.008 v 0.054 0.26 0.062 h -0.062 -1.66 -0.031 l -0.019,-0.026 -1.744,-2.387 h -0.27 v 0.574 0 c 0,0.637 0.037,1.006 0.176,1.21 0.132,0.195 0.374,0.246 0.787,0.246 l 0.062,-0.002 v 0.063 0.26 0.062 h -0.062 -2.97 -0.062 v -0.062 -0.26 -0.062 h 0.062 c 0.413,0 0.654,-0.051 0.787,-0.246 0.139,-0.204 0.176,-0.573 0.176,-1.21 v 0 -2.075 0 c 0,-0.635 -0.037,-1.001 -0.176,-1.202 -0.132,-0.193 -0.374,-0.24 -0.787,-0.24 H 68.103 V 96.901 96.642 96.58 h 0.062 2.685 0.004 v 0 c 0.68,0 1.211,0.176 1.572,0.471 0.367,0.3 0.56,0.719 0.56,1.195 v 0 0.002 c 0,0.591 -0.32,1.107 -0.874,1.398 -0.108,0.059 -0.224,0.108 -0.347,0.146 z m 0.084,-1.539 v 0 -0.004 -0.004 0 c 0,-0.295 -0.081,-0.564 -0.245,-0.76 -0.163,-0.193 -0.413,-0.313 -0.755,-0.313 v 0 H 70.847 70.17 v 2.132 h 0.677 0.002 v 0 c 0.342,0 0.591,-0.12 0.754,-0.308 0.166,-0.189 0.246,-0.456 0.246,-0.743 z m -6.876,3.463 h 0.156 v 0 c 0.577,0 0.904,-0.053 1.103,-0.177 0.191,-0.12 0.267,-0.317 0.341,-0.606 l 0.065,-0.26 0.012,-0.046 h 0.048 0.259 0.066 l -0.004,0.065 -0.103,1.569 -0.004,0.058 h -0.058 -4.85 -0.062 v -0.062 -0.26 -0.062 h 0.062 c 0.413,0 0.655,-0.051 0.787,-0.246 0.14,-0.204 0.176,-0.573 0.176,-1.21 v 0 -2.074 0 c 0,-0.635 -0.036,-1.001 -0.175,-1.202 -0.132,-0.193 -0.374,-0.24 -0.787,-0.24 H 61.943 V 96.901 96.642 96.58 h 0.062 2.866 1.673 0.058 l 0.003,0.058 0.104,1.556 0.003,0.066 H 66.646 66.375 66.326 L 66.314,98.213 66.249,97.954 V 97.951 C 66.182,97.67 66.109,97.472 65.92,97.35 65.723,97.225 65.396,97.17 64.818,97.17 h -0.807 v 1.807 h 0.016 c 0.634,0 0.974,-0.036 1.148,-0.172 0.167,-0.132 0.189,-0.374 0.189,-0.79 v -0.06 h 0.063 0.259 0.063 v 0.062 2.529 0.062 h -0.063 -0.259 -0.063 v -0.062 c 0,-0.41 -0.023,-0.652 -0.189,-0.786 C 65,99.621 64.66,99.583 64.027,99.583 h -0.016 v 0.69 0 c 0,0.635 0.037,1.001 0.175,1.202 0.133,0.194 0.375,0.241 0.787,0.241 z m -9.237,0.788 -2.76,-6.354 v 4.317 0 c 0,0.635 0.039,1.003 0.205,1.207 0.162,0.199 0.46,0.248 0.978,0.248 h 0.062 v 0.063 0.272 0.062 H 54.159 51.202 51.14 v -0.062 -0.272 -0.063 h 0.062 c 0.518,0 0.813,-0.049 0.971,-0.248 v 0 c 0.162,-0.202 0.199,-0.572 0.199,-1.207 v 0 -4.213 0 c 0,-0.636 -0.037,-1 -0.199,-1.2 -0.158,-0.195 -0.453,-0.242 -0.971,-0.242 H 51.14 v -0.063 -0.271 -0.063 h 0.062 2.205 0.041 l 0.017,0.036 2.692,6.186 2.679,-6.184 0.017,-0.038 h 0.041 2.036 0.062 v 0.062 0.271 0.063 H 60.93 c -0.525,0 -0.823,0.047 -0.982,0.242 -0.165,0.2 -0.201,0.564 -0.201,1.2 v 0 4.213 0 c 0,0.635 0.037,1.003 0.201,1.207 0.16,0.199 0.458,0.25 0.982,0.25 h 0.062 v 0.062 0.272 0.062 H 60.93 57.429 57.367 v -0.062 -0.272 -0.063 h 0.062 c 0.519,0 0.813,-0.049 0.971,-0.248 v 0 c 0.162,-0.202 0.198,-0.572 0.198,-1.207 v 0 -3.929 l -2.578,5.966 -0.017,0.037 h -0.04 -0.168 -0.041 z m -12.233,-2.023 v 0 -2.076 0 c 0,-0.635 -0.037,-1.001 -0.176,-1.202 -0.133,-0.193 -0.375,-0.24 -0.787,-0.24 H 42.478 V 96.901 96.642 96.58 h 0.062 2.969 0.062 v 0.062 0.259 0.062 h -0.062 c -0.413,0 -0.655,0.047 -0.787,0.24 -0.139,0.201 -0.175,0.567 -0.175,1.202 v 0 1.868 0 c 0,0.635 0.037,1.001 0.175,1.202 0.132,0.193 0.374,0.24 0.787,0.24 h 0.454 v 0 c 0.584,0 0.912,-0.053 1.108,-0.177 0.189,-0.12 0.261,-0.317 0.336,-0.606 l 0.064,-0.26 0.012,-0.046 h 0.048 0.272 0.065 l -0.003,0.065 -0.091,1.567 -0.003,0.06 h -0.058 -5.174 -0.062 v -0.062 -0.26 -0.063 l 0.062,0.002 c 0.412,0 0.654,-0.051 0.786,-0.246 0.141,-0.203 0.178,-0.572 0.178,-1.208 z m -4.153,1.235 h 0.156 c 0.578,0 0.904,-0.053 1.103,-0.177 0.191,-0.12 0.267,-0.317 0.341,-0.606 v 0 l 0.065,-0.26 0.012,-0.046 h 0.048 0.26 0.065 l -0.004,0.065 -0.103,1.569 -0.004,0.058 h -0.058 -4.85 -0.062 v -0.062 -0.26 -0.062 h 0.062 c 0.413,0 0.654,-0.051 0.787,-0.246 0.14,-0.204 0.176,-0.573 0.176,-1.21 v 0 -2.074 0 c 0,-0.635 -0.036,-1.001 -0.176,-1.202 -0.132,-0.193 -0.374,-0.24 -0.787,-0.24 H 36.319 V 96.901 96.642 96.58 h 0.062 2.866 1.672 0.058 l 0.004,0.058 0.104,1.556 0.004,0.066 h -0.066 -0.272 -0.049 l -0.011,-0.047 -0.065,-0.258 v -0.003 c -0.068,-0.281 -0.141,-0.478 -0.33,-0.601 -0.196,-0.125 -0.524,-0.18 -1.101,-0.18 h -0.807 v 1.807 h 0.016 c 0.633,0 0.974,-0.036 1.148,-0.172 v 0 c 0.167,-0.132 0.189,-0.374 0.189,-0.79 v -0.061 h 0.063 0.259 0.063 v 0.062 2.529 0.062 h -0.063 -0.259 -0.063 v -0.062 c 0,-0.41 -0.023,-0.652 -0.19,-0.786 -0.174,-0.139 -0.515,-0.177 -1.148,-0.177 h -0.016 v 0.69 0 c 0,0.635 0.037,1.001 0.176,1.202 0.133,0.194 0.375,0.241 0.787,0.241 z m -7.456,0.603 h -2.749 -0.062 v -0.062 -0.26 -0.062 h 0.062 c 0.413,0 0.654,-0.051 0.787,-0.246 0.139,-0.204 0.175,-0.573 0.175,-1.21 v 0 -2.074 0 c 0,-0.635 -0.036,-1.001 -0.175,-1.202 -0.132,-0.193 -0.374,-0.24 -0.787,-0.24 H 29.083 V 96.901 96.642 96.58 h 0.062 2.749 v 0 h 0.003 v 0 c 1.118,0 1.922,0.324 2.449,0.843 0.527,0.52 0.773,1.238 0.774,2.018 v 0 0.002 0.003 0 c 0,0.787 -0.247,1.505 -0.773,2.027 -0.526,0.52 -1.332,0.846 -2.45,0.846 v 0 z m 1.654,-1.353 c 0.29,-0.441 0.372,-1.015 0.372,-1.522 v -0.006 0 c 0,-0.502 -0.084,-1.07 -0.373,-1.513 -0.288,-0.438 -0.782,-0.753 -1.61,-0.753 v 0 h -0.004 -0.781 v 3.62 c 0,0.407 0.021,0.646 0.114,0.773 0.089,0.118 0.26,0.15 0.563,0.15 h 0.104 c 0.831,10e-4 1.327,-0.312 1.615,-0.749 z M 78.722,88.62 v 0 -2.075 0 c 0,-0.635 -0.037,-1.003 -0.175,-1.205 -0.133,-0.191 -0.375,-0.237 -0.787,-0.237 h -0.063 v -0.062 -0.259 -0.063 h 0.063 2.969 0.062 v 0.063 0.259 0.062 h -0.062 c -0.413,0 -0.655,0.046 -0.787,0.237 -0.139,0.202 -0.176,0.57 -0.176,1.205 v 0 1.866 0 c 0,0.637 0.037,1.003 0.176,1.204 0.132,0.191 0.375,0.238 0.787,0.238 h 0.454 v 0.002 c 0.584,0 0.912,-0.053 1.108,-0.179 0.189,-0.118 0.262,-0.315 0.336,-0.604 l 0.064,-0.259 0.012,-0.049 h 0.049 0.272 0.065 l -0.003,0.065 -0.09,1.569 -0.004,0.06 H 82.933 77.76 77.697 v -0.062 -0.262 -0.062 h 0.063 c 0.412,0 0.654,-0.049 0.787,-0.244 0.138,-0.202 0.175,-0.574 0.175,-1.208 z m -5.874,-0.621 h 1.523 l -0.762,-1.765 z m 1.784,0.606 h -2.045 l -0.243,0.559 v 0 c -0.154,0.363 -0.232,0.597 -0.159,0.724 0.074,0.128 0.315,0.175 0.803,0.175 h 0.062 v 0.062 0.274 0.062 h -0.062 -2.452 -0.062 v -0.062 -0.274 -0.062 h 0.062 c 0.38,0 0.597,-0.036 0.764,-0.183 0.172,-0.153 0.306,-0.43 0.516,-0.909 l 1.906,-4.435 0.017,-0.036 h 0.041 0.181 0.041 l 0.016,0.036 1.906,4.435 c 0.21,0.479 0.354,0.756 0.523,0.909 0.164,0.146 0.363,0.183 0.691,0.183 H 77.2 v 0.062 0.274 0.062 H 77.138 74.232 74.17 l 0.001,-0.062 v -0.274 -0.062 h 0.061 c 0.444,0 0.685,-0.047 0.771,-0.179 0.084,-0.129 0.026,-0.356 -0.126,-0.72 v 0 z m -9.993,0.015 v 0 -2.075 0 c 0,-0.635 -0.037,-1.003 -0.175,-1.205 -0.133,-0.191 -0.374,-0.237 -0.787,-0.237 h -0.063 v -0.062 -0.259 -0.063 h 0.063 1.595 0.028 l 0.019,0.022 3.34,3.967 v -2.163 0 c 0,-0.635 -0.037,-1.003 -0.176,-1.205 -0.132,-0.191 -0.374,-0.237 -0.787,-0.237 h -0.063 v -0.062 -0.259 -0.063 h 0.063 2.528 0.062 v 0.063 0.259 0.062 h -0.062 c -0.413,0 -0.655,0.046 -0.787,0.237 -0.139,0.202 -0.175,0.57 -0.175,1.205 v 0 4.061 0.063 H 69.199 68.952 68.923 L 68.904,90.646 65.24,86.25 v 2.37 0 c 0,0.634 0.038,1.006 0.176,1.21 0.133,0.195 0.374,0.244 0.787,0.244 h 0.062 v 0.062 0.262 0.062 h -0.062 -2.528 -0.063 v -0.062 -0.262 -0.062 h 0.063 c 0.413,0 0.654,-0.049 0.787,-0.244 0.141,-0.204 0.177,-0.576 0.177,-1.21 z m -3.423,-1.037 v 0 -0.002 -0.002 0 c 0,-0.546 -0.14,-1.164 -0.466,-1.645 -0.322,-0.477 -0.831,-0.819 -1.569,-0.819 v 0 h -0.003 -0.003 v 0 c -0.739,0 -1.247,0.343 -1.569,0.817 -0.327,0.482 -0.467,1.101 -0.467,1.646 v 0 0.002 0.005 0 c 0,0.552 0.14,1.169 0.465,1.649 0.323,0.474 0.831,0.813 1.571,0.813 v 0 h 0.003 0.003 v 0 c 0.739,0 1.247,-0.34 1.569,-0.813 0.326,-0.479 0.465,-1.096 0.466,-1.651 z m 1.186,-0.002 v 0 0 0.005 0 c 0,0.851 -0.364,1.626 -0.948,2.187 -0.585,0.559 -1.391,0.906 -2.276,0.906 v 0.002 h -10e-4 -0.003 v -0.002 c -0.883,0 -1.689,-0.346 -2.273,-0.906 -0.585,-0.561 -0.949,-1.336 -0.95,-2.189 v 0 -0.002 -0.002 0 C 55.952,86.741 56.315,85.97 56.9,85.412 57.484,84.85 58.291,84.5 59.175,84.5 v 0 h 0.001 0.002 v 0 c 0.884,0 1.689,0.351 2.274,0.91 0.587,0.559 0.95,1.33 0.95,2.171 z m -7.675,2.555 v 0.262 0.062 h -0.063 -2.969 -0.063 v -0.062 -0.262 -0.062 h 0.063 c 0.413,0 0.655,-0.049 0.788,-0.244 0.138,-0.204 0.175,-0.576 0.175,-1.21 v 0 -2.075 0 c 0,-0.635 -0.037,-1.003 -0.175,-1.205 -0.132,-0.191 -0.375,-0.237 -0.788,-0.237 h -0.063 v -0.062 -0.259 -0.063 h 0.063 2.969 0.063 v 0.063 0.259 0.062 h -0.063 c -0.413,0 -0.654,0.046 -0.787,0.237 -0.139,0.202 -0.176,0.57 -0.176,1.205 v 0 2.075 0 c 0,0.634 0.037,1.006 0.176,1.21 0.133,0.195 0.375,0.244 0.787,0.244 h 0.063 z m -4.41,-1.996 v 2.258 0.062 H 50.256 50.009 49.96 l -0.011,-0.049 c -0.037,-0.164 -0.092,-0.366 -0.153,-0.499 -0.008,-0.018 -0.016,-0.034 -0.025,-0.052 -0.16,0.183 -0.362,0.349 -0.587,0.481 -0.047,0.028 -0.097,0.059 -0.148,0.083 -0.31,0.157 -0.65,0.255 -0.971,0.255 v 0.002 h -0.002 -0.002 v -0.002 c -0.827,0 -1.575,-0.348 -2.115,-0.908 -0.54,-0.561 -0.875,-1.334 -0.875,-2.188 v 0 -0.002 -0.002 0 c 0,-0.839 0.335,-1.608 0.874,-2.168 0.541,-0.562 1.29,-0.912 2.117,-0.912 v 0 h 0.001 c 0.461,0 0.962,0.191 1.356,0.489 v 0 c 0.077,0.057 0.149,0.119 0.217,0.185 0.046,0.045 0.09,0.092 0.132,0.139 0.027,-0.052 0.054,-0.12 0.079,-0.193 0.04,-0.118 0.075,-0.249 0.101,-0.351 l 0.012,-0.049 h 0.048 0.248 0.062 v 0.063 2.242 0.063 h -0.062 -0.259 -0.051 l -0.01,-0.049 C 49.768,86.216 49.394,85.604 48.854,85.311 48.75,85.252 48.639,85.208 48.523,85.176 48.38,85.136 48.228,85.114 48.067,85.114 v 0 H 48.063 48.06 v 0 c -0.697,0.003 -1.15,0.349 -1.427,0.823 -0.282,0.485 -0.388,1.105 -0.388,1.641 v 0 0.002 0.007 0 c 0,0.539 0.105,1.158 0.387,1.641 0.277,0.477 0.729,0.82 1.428,0.82 v 0 h 0.003 c 0.693,0 1.231,-0.383 1.568,-1.032 v 0 c 0.065,-0.128 0.125,-0.266 0.175,-0.412 v 0 c 0.051,-0.151 0.094,-0.308 0.127,-0.472 l 10e-4,-0.006 0.01,-0.049 h 0.051 0.261 0.062 V 88.14 Z M 40.3,87.999 h 1.523 l -0.762,-1.765 z m 1.785,0.606 H 40.04 l -0.243,0.559 v 0 c -0.154,0.363 -0.232,0.597 -0.159,0.724 0.075,0.128 0.316,0.175 0.803,0.175 h 0.063 v 0.062 0.274 0.062 h -0.062 -2.451 -0.065 l 10e-4,-0.062 v -0.274 -0.062 h 0.061 c 0.38,0 0.596,-0.036 0.763,-0.183 0.172,-0.153 0.306,-0.43 0.516,-0.909 l 1.906,-4.435 0.016,-0.036 h 0.042 0.181 0.042 l 0.016,0.036 1.906,4.435 c 0.21,0.479 0.354,0.756 0.522,0.909 0.164,0.146 0.364,0.183 0.691,0.183 h 0.062 v 0.062 0.274 0.062 h -0.062 -2.905 -0.063 v -0.062 -0.274 -0.062 h 0.063 c 0.444,0 0.685,-0.047 0.771,-0.179 0.084,-0.129 0.026,-0.356 -0.126,-0.72 v 0 z m -11.167,-6.03 4.869,6.037 v -4.221 0 c 0,-0.634 -0.036,-0.998 -0.198,-1.198 -0.159,-0.195 -0.453,-0.244 -0.972,-0.244 h -0.062 v -0.062 -0.272 -0.06 h 0.062 2.957 0.062 v 0.061 0.272 0.062 h -0.062 c -0.519,0 -0.816,0.049 -0.979,0.244 v 0 c -0.165,0.2 -0.205,0.564 -0.205,1.198 v 0 6.226 0.063 H 36.327 36.029 36 l -0.02,-0.022 -5.167,-6.39 v 4.338 0 c 0,0.633 0.04,1.003 0.205,1.207 0.162,0.197 0.46,0.248 0.979,0.248 h 0.062 v 0.062 0.274 0.062 H 31.997 29.04 28.977 v -0.062 -0.274 -0.062 h 0.063 c 0.518,0 0.813,-0.051 0.971,-0.248 0.162,-0.204 0.199,-0.574 0.199,-1.207 v 0 -4.215 0 c 0,-0.634 -0.036,-0.998 -0.198,-1.198 C 29.853,82.999 29.558,82.95 29.04,82.95 h -0.062 v -0.062 -0.273 -0.06 h 0.062 1.828 0.029 z M 76.997,76.76 v 0 -2.075 0 c 0,-0.638 -0.037,-1.003 -0.176,-1.205 -0.132,-0.191 -0.374,-0.237 -0.787,-0.237 H 75.971 V 73.18 72.921 72.859 h 0.063 1.595 0.028 l 0.018,0.021 3.341,3.969 v -2.164 c 0,-0.638 -0.037,-1.003 -0.176,-1.205 -0.133,-0.191 -0.375,-0.237 -0.787,-0.237 H 79.991 V 73.18 72.921 72.859 h 0.062 2.529 0.062 v 0.062 0.259 0.063 h -0.062 c -0.414,0 -0.654,0.046 -0.788,0.237 -0.138,0.202 -0.175,0.567 -0.175,1.205 v 0 4.06 0.061 H 81.557 81.31 81.28 l -0.018,-0.021 -3.665,-4.397 v 2.372 0 c 0,0.635 0.037,1.004 0.176,1.21 0.132,0.193 0.374,0.244 0.787,0.244 h 0.062 v 0.062 0.26 0.061 H 78.56 76.032 75.969 v -0.062 -0.26 -0.062 h 0.063 c 0.413,0 0.654,-0.051 0.787,-0.244 0.141,-0.205 0.178,-0.574 0.178,-1.209 z m -3.423,-1.037 v 0 -0.002 -0.004 0 c 0,-0.547 -0.141,-1.164 -0.466,-1.645 -0.322,-0.475 -0.831,-0.817 -1.57,-0.817 v 0 h -0.003 -0.002 v 0 c -0.739,0 -1.247,0.343 -1.57,0.817 -0.326,0.48 -0.467,1.101 -0.467,1.646 v 0 0.002 0.004 0 c 0.001,0.553 0.141,1.17 0.466,1.648 0.322,0.476 0.831,0.813 1.57,0.815 v 0 h 0.002 0.003 v 0 c 0.739,-0.002 1.247,-0.34 1.57,-0.813 0.327,-0.479 0.466,-1.099 0.467,-1.651 z m 1.187,-0.002 v 0 0 0.002 0 c -10e-4,0.854 -0.364,1.627 -0.949,2.188 -0.584,0.561 -1.39,0.908 -2.275,0.908 v 0 h -0.001 -0.002 v 0 c -0.884,0 -1.689,-0.348 -2.273,-0.906 -0.585,-0.561 -0.95,-1.336 -0.95,-2.189 v 0 -0.002 -0.002 0 c 0,-0.839 0.364,-1.61 0.95,-2.17 0.583,-0.56 1.39,-0.912 2.275,-0.912 v 0 h 0.001 0.003 v 0 c 0.884,0.002 1.689,0.353 2.273,0.912 0.584,0.557 0.947,1.33 0.948,2.171 z m -1.776,-4.929 v 0.002 c 0,0.161 -0.112,0.291 -0.218,0.371 v 0 c -0.019,0.016 -0.04,0.028 -0.06,0.04 v 0 c -0.018,0.014 -0.036,0.024 -0.052,0.03 v 0 l -0.002,0.002 -0.003,0.003 -1.776,0.764 -0.046,0.02 -0.028,-0.04 -0.065,-0.092 -0.031,-0.043 0.04,-0.037 1.206,-1.128 10e-4,-0.002 0.008,-0.006 c 0.226,-0.2 0.363,-0.321 0.603,-0.321 h 0.002 v 0.002 c 0.144,0 0.25,0.063 0.32,0.15 v 0 c 0.066,0.085 0.1,0.195 0.101,0.285 z m -5.9,7.483 v 0.26 0.061 h -0.063 -2.969 -0.062 v -0.061 -0.26 -0.062 h 0.062 c 0.413,0 0.655,-0.051 0.787,-0.244 0.14,-0.206 0.176,-0.575 0.176,-1.21 v 0 -2.074 0 c 0,-0.638 -0.037,-1.003 -0.176,-1.205 -0.132,-0.191 -0.374,-0.237 -0.787,-0.237 H 63.991 V 73.18 72.921 72.859 h 0.062 2.969 0.063 v 0.062 0.259 0.063 h -0.063 c -0.412,0 -0.654,0.046 -0.787,0.237 -0.138,0.202 -0.176,0.567 -0.176,1.205 h 0.001 v 2.075 h -0.001 c 0,0.635 0.038,1.004 0.176,1.21 0.133,0.193 0.375,0.244 0.787,0.244 h 0.063 z m -4.15,-1.297 v 0 0 0.004 0 c 0,0.548 -0.219,1.008 -0.565,1.33 -0.347,0.323 -0.822,0.507 -1.336,0.507 v 0 h -10e-4 c -0.346,0 -0.659,-0.082 -0.914,-0.186 -0.224,-0.09 -0.405,-0.198 -0.526,-0.276 -0.031,0.04 -0.064,0.087 -0.096,0.142 -0.044,0.074 -0.083,0.168 -0.101,0.27 l -0.01,0.051 h -0.051 -0.233 -0.063 v -0.062 -2.233 -0.063 h 0.063 0.259 0.056 l 0.006,0.058 c 0.071,0.766 0.439,1.291 0.986,1.526 0.106,0.047 0.22,0.08 0.34,0.104 0.121,0.024 0.248,0.038 0.379,0.038 v 0 h 0.01 0.004 v 0 c 0.263,-0.002 0.497,-0.075 0.665,-0.213 0.166,-0.136 0.267,-0.336 0.268,-0.593 v 0 -0.002 c 0,-0.21 -0.085,-0.397 -0.252,-0.572 -0.173,-0.184 -0.434,-0.355 -0.777,-0.527 h -10e-4 l -0.882,-0.454 v 0 c -0.356,-0.186 -0.659,-0.438 -0.858,-0.754 v 0 C 59.266,75.01 59.231,74.945 59.201,74.878 59.107,74.673 59.055,74.444 59.054,74.194 v 0 -0.003 -0.004 0 c 0,-0.425 0.179,-0.81 0.479,-1.087 0.299,-0.278 0.719,-0.448 1.202,-0.45 v 0 h 10e-4 c 0.402,0 0.736,0.104 0.996,0.234 v 0 c 0.051,0.028 0.099,0.054 0.144,0.082 0.028,0.017 0.054,0.034 0.08,0.051 0.057,-0.07 0.125,-0.17 0.145,-0.326 l 0.006,-0.055 h 0.055 0.26 0.063 v 0.062 2.192 0.063 h -0.063 -0.26 -0.056 l -0.005,-0.058 c -0.054,-0.541 -0.243,-1.152 -0.674,-1.454 v 0 c -0.083,-0.059 -0.174,-0.104 -0.276,-0.136 -0.103,-0.032 -0.215,-0.052 -0.338,-0.052 v 0 H 60.8 60.796 v 0 c -0.238,0 -0.457,0.063 -0.615,0.183 -0.155,0.117 -0.252,0.286 -0.252,0.506 v 0 0.003 c 0,0.208 0.078,0.369 0.248,0.526 0.178,0.166 0.457,0.327 0.847,0.533 l 0.869,0.454 c 0.317,0.162 0.552,0.361 0.717,0.576 0.032,0.042 0.061,0.085 0.089,0.13 0.164,0.266 0.235,0.551 0.236,0.814 z m -5.187,1.297 v 0.26 0.061 h -0.062 -2.97 -0.062 v -0.061 -0.26 -0.062 h 0.062 c 0.413,0 0.655,-0.051 0.787,-0.244 0.139,-0.206 0.175,-0.575 0.175,-1.21 v 0 -2.074 0 c 0,-0.638 -0.037,-1.003 -0.175,-1.205 -0.132,-0.191 -0.374,-0.237 -0.787,-0.237 H 54.654 V 73.18 72.921 72.859 h 0.062 2.97 0.062 v 0.062 0.259 0.063 h -0.062 c -0.413,0 -0.655,0.046 -0.787,0.237 -0.139,0.202 -0.176,0.567 -0.176,1.205 h 10e-4 v 2.075 h -10e-4 c 0,0.635 0.038,1.004 0.177,1.21 0.132,0.193 0.375,0.244 0.787,0.244 h 0.062 v 0.061 z m -8.353,0.508 -1.904,-4.324 v 2.301 c 0,0.635 0.036,1.004 0.176,1.21 0.132,0.193 0.374,0.244 0.787,0.244 h 0.062 v 0.062 0.26 0.061 h -0.062 -2.528 -0.063 v -0.062 -0.26 -0.062 h 0.063 c 0.412,0 0.654,-0.051 0.786,-0.244 0.14,-0.206 0.176,-0.575 0.176,-1.21 v 0 -2.074 0 c 0,-0.638 -0.036,-1.003 -0.176,-1.205 -0.132,-0.191 -0.374,-0.237 -0.786,-0.237 H 45.863 V 73.18 72.921 72.859 h 0.063 1.944 0.04 l 0.017,0.035 1.875,4.206 1.863,-4.206 0.016,-0.035 h 0.041 1.816 0.062 v 0.062 0.259 0.063 h -0.062 c -0.413,0 -0.658,0.046 -0.794,0.237 -0.142,0.202 -0.182,0.57 -0.182,1.205 v 0 2.075 0 c 0,0.635 0.041,1.004 0.182,1.207 0.136,0.196 0.381,0.247 0.794,0.247 H 53.6 v 0.062 0.26 0.061 h -0.062 -2.97 -0.062 v -0.062 -0.26 -0.062 h 0.062 c 0.413,0 0.654,-0.051 0.787,-0.244 0.139,-0.206 0.176,-0.575 0.176,-1.21 H 51.53 v -2.133 l -1.838,4.156 -0.017,0.035 h -0.04 -0.182 -0.04 z m -5.737,-3.06 v 0 -0.002 -0.004 0 c 0,-0.547 -0.141,-1.164 -0.466,-1.645 -0.323,-0.475 -0.831,-0.817 -1.571,-0.817 v 0 h -0.002 -0.003 v 0 c -0.739,0 -1.247,0.343 -1.57,0.817 -0.326,0.48 -0.466,1.101 -0.466,1.646 v 0 0.002 0.004 0 c 0.001,0.553 0.14,1.17 0.466,1.648 0.322,0.476 0.83,0.813 1.57,0.815 v 0 h 0.002 0.002 v 0 c 0.739,-0.002 1.248,-0.34 1.57,-0.813 0.327,-0.479 0.468,-1.099 0.468,-1.651 z m 1.187,-0.002 v 0 0 0.002 0 c 0,0.854 -0.364,1.627 -0.949,2.188 -0.584,0.561 -1.391,0.908 -2.276,0.908 v 0 h -10e-4 -0.003 v 0 c -0.884,0 -1.689,-0.348 -2.273,-0.906 -0.585,-0.561 -0.949,-1.336 -0.95,-2.189 v 0 -0.002 -0.002 0 c 0,-0.839 0.364,-1.61 0.949,-2.17 0.584,-0.56 1.39,-0.912 2.275,-0.912 v 0 h 0.001 0.002 v 0 c 0.884,0.002 1.69,0.353 2.273,0.912 0.587,0.557 0.951,1.33 0.952,2.171 z M 36.624,75.54 v 2.853 0.062 h -0.062 -0.26 -0.05 l -0.01,-0.049 c -0.044,-0.213 -0.159,-0.426 -0.279,-0.57 v 0 C 35.94,77.807 35.916,77.781 35.895,77.761 l -0.027,-0.024 c -0.271,0.274 -0.571,0.506 -0.892,0.682 -0.064,0.037 -0.132,0.071 -0.2,0.101 -0.414,0.195 -0.861,0.301 -1.323,0.301 v 0 h -0.002 -0.002 v 0 c -1.111,0 -2.122,-0.471 -2.854,-1.229 -0.732,-0.756 -1.186,-1.798 -1.186,-2.942 h -10e-4 v -0.003 -0.002 h 10e-4 c 0,-1.142 0.454,-2.185 1.185,-2.941 0.733,-0.756 1.744,-1.228 2.856,-1.229 v 0 h 10e-4 c 0.666,0 1.297,0.213 1.85,0.597 0.106,0.074 0.211,0.158 0.313,0.244 0.086,0.075 0.171,0.156 0.253,0.24 0.104,-0.094 0.216,-0.24 0.295,-0.414 0.017,-0.038 0.033,-0.079 0.046,-0.121 v 0 c 0.014,-0.042 0.025,-0.085 0.035,-0.127 v 0 l 10e-4,-0.004 0.009,-0.052 h 0.051 0.26 0.062 v 0.063 2.853 0.062 h -0.062 -0.26 -0.05 l -0.01,-0.049 C 35.999,72.633 35.464,71.802 34.7,71.393 34.553,71.314 34.396,71.25 34.23,71.204 v 0 c -0.226,-0.063 -0.467,-0.098 -0.722,-0.098 v 0 h -0.004 -0.003 v 0 c -1.011,0 -1.7,0.488 -2.136,1.17 -0.441,0.688 -0.626,1.578 -0.626,2.37 v 0 0.002 0.005 0 c 0,0.792 0.186,1.678 0.626,2.361 0.436,0.679 1.125,1.163 2.137,1.165 v 0 h 0.003 c 1.01,0 1.799,-0.523 2.295,-1.425 0.097,-0.174 0.183,-0.365 0.256,-0.568 0.075,-0.204 0.137,-0.421 0.188,-0.65 v 0 l 10e-4,-0.006 0.01,-0.049 h 0.05 0.26 0.062 V 75.54 Z M 0,0 c 40.626,0 79.529,0 123.283,0 v 37.688 h -8.855 v 1.331 c 3.808,0 4.496,1.01 3.441,3.487 L 111.4,57.418 104.977,42.506 c -1.055,-2.431 -0.597,-3.487 3.441,-3.487 v -1.331 c -7.83,0 -15.66,0 -23.49,0 L 76.349,57.555 67.494,37.688 c -6.861,0 -13.722,0 -20.583,0 v 1.331 c 3.808,0 4.405,0.781 4.405,5.368 V 55.948 L 35.992,37.688 h -9.176 v 1.331 c 3.808,0 4.359,0.781 4.359,5.368 v 10.785 c 0,4.587 -0.551,5.368 -4.359,5.368 v 10e-4 L 25.549,60.54 c -3.602,4.646 -7.448,6.312 -10.141,6.25 -7.841,-0.177 -9.88,-9.649 -9.88,-15.337 0,-5.689 1.789,-12.342 8.075,-12.342 3.579,0 6.646,1.995 8.391,5.76 h 2.437 V 37.635 H 23.338 C 23.063,38.783 22.741,40.86 22.145,41.32 20.187,38.396 16.632,36.91 13.42,36.91 7.157,36.91 1.823,41.191 0.003,47.044 V 0 Z" /></svg>